<svg xmlns="http://www.w3.org/2000/svg" version="1.1" xmlns:xlink="http://www.w3.org/1999/xlink" id="Layer_1" viewBox="0 0 512.00 512.00" xml:space="preserve" width="800px" height="800px" fill="#000000" stroke="#000000"><metadata><rdf:RDF xmlns:rdf="http://www.w3.org/1999/02/22-rdf-syntax-ns#" xmlns:dc="http://purl.org/dc/elements/1.1/"><rdf:Description><dc:creator>RealFaviconGenerator</dc:creator><dc:source>https://realfavicongenerator.net</dc:source></rdf:Description></rdf:RDF></metadata><g id="SVGRepo_bgCarrier" stroke-width="0"></g><g id="SVGRepo_tracerCarrier" stroke-linecap="round" stroke-linejoin="round"></g><g id="SVGRepo_iconCarrier"> <rect x="237.722" y="211.045" style="fill:#FACC15;" width="37.294" height="71.266"></rect> <g style="opacity:0.39;"> <rect x="237.722" y="211.045" style="fill:#FACC15;" width="37.294" height="27.34"></rect> </g> <circle style="fill:#FACC15;" cx="256.36" cy="115.077" r="107.405"></circle> <circle style="fill:#FACC15;" cx="256.36" cy="115.077" r="79.981"></circle> <polygon style="fill:#FACC15;" points="274.957,82.859 293.557,115.077 274.957,147.294 237.756,147.294 219.155,115.077 237.756,82.859 "></polygon> <g style="opacity:0.37;"> <path style="fill:#FACC15;" d="M237.591,147.294l-21.384,37.038c11.767,6.81,25.419,10.728,39.993,10.728 c14.569,0,28.216-3.915,39.98-10.72l-21.388-37.045h-37.202V147.294z"></path> </g> <path style="fill:#FACC15;" d="M274.796,82.859l21.384-37.038c-11.767-6.81-25.419-10.728-39.993-10.728 c-14.569,0-28.216,3.915-39.98,10.72l21.388,37.045h37.202V82.859z"></path> <g> <rect x="162.897" y="268.001" style="fill:#FACC15;" width="186.936" height="28.641"></rect> <rect x="162.897" y="447.05" style="fill:#FACC15;" width="186.936" height="28.641"></rect> <rect x="138.859" y="475.691" style="fill:#FACC15;" width="234.286" height="28.641"></rect> </g> <rect x="180.798" y="296.642" style="fill:#FACC15;" width="150.408" height="150.408"></rect> <rect x="180.798" y="335.512" style="fill:#FACC15;" width="150.408" height="64.443"></rect> <g style="opacity:0.37;"> <path style="fill:#FACC15;" d="M296.387,45.837l-21.375,37.022l18.6,32.217h42.736C336.349,85.489,320.271,59.673,296.387,45.837z"></path> </g> <path style="fill:#FACC15;" d="M216.344,45.837l21.375,37.022l-18.6,32.217h-42.736C176.382,85.489,192.46,59.673,216.344,45.837z"></path> <g style="opacity:0.59;"> <path style="fill:#FACC15;" d="M296.387,184.316l-21.375-37.022l18.6-32.217h42.736 C336.349,144.665,320.271,170.48,296.387,184.316z"></path> </g> <path style="opacity:0.3;fill:#FACC15;enable-background:new ;" d="M316.21,25.879c11.496,17.102,18.208,37.689,18.208,59.845 c0,59.318-48.087,107.405-107.405,107.405c-22.156,0-42.743-6.711-59.845-18.208c19.284,28.685,52.035,47.56,89.197,47.56 c59.318,0,107.405-48.087,107.405-107.405C363.77,77.915,344.895,45.162,316.21,25.879z"></path> <g> <path style="fill:#FACC15;" d="M331.203,267.997v5.053c0,4.73-3.834,8.564-8.564,8.564H162.895v15.024h168.309h18.632v-15.024 v-13.617H331.203z"></path> <path style="fill:#FACC15;" d="M327.313,447.046v2.985c0,5.871-4.761,10.632-10.632,10.632H162.895v15.024h164.418h22.522v-15.024 v-13.617H327.313z"></path> <path style="fill:#FACC15;" d="M350.62,475.687v2.985c0,5.871-4.761,10.632-10.632,10.632H138.857v15.024H350.62h22.522v-15.024 v-13.617H350.62z"></path> </g> <rect x="283.896" y="296.642" style="opacity:0.21;fill:#FACC15;enable-background:new ;" width="47.309" height="150.408"></rect> <path d="M261.187,122.748c4.238,0,7.672-3.435,7.672-7.672s-3.434-7.672-7.672-7.672h-0.01c-4.237,0-7.667,3.435-7.667,7.672 S256.95,122.748,261.187,122.748z"></path> <path d="M344.02,115.077c0-48.333-39.321-87.655-87.656-87.655c-48.333,0-87.655,39.321-87.655,87.655s39.321,87.656,87.655,87.656 C304.699,202.732,344.02,163.41,344.02,115.077z M227.062,181.161l15.124-26.196h28.343l15.128,26.202 c-8.961,3.987-18.866,6.221-29.29,6.221C245.936,187.389,236.025,185.152,227.062,181.161z M270.528,90.531l14.171,24.546 l-14.171,24.546h-28.343l-14.171-24.546l14.171-24.546H270.528z M298.973,173.453l-15.103-26.159l14.172-24.546h30.225 C326.064,143.534,315.017,161.71,298.973,173.453z M328.267,107.405h-30.225l-14.171-24.546l15.103-26.159 C315.017,68.443,326.064,86.619,328.267,107.405z M285.656,48.987l-15.128,26.202h-28.343l-15.124-26.196 c8.965-3.99,18.875-6.227,29.304-6.227C266.789,42.766,276.695,45,285.656,48.987z M213.758,56.702L228.86,82.86l-14.171,24.545 h-30.224C186.667,86.619,197.713,68.443,213.758,56.702z M184.465,122.748h30.224l14.171,24.546l-15.102,26.159 C197.713,161.71,186.667,143.534,184.465,122.748z"></path> <path d="M373.142,468.015h-15.635v-20.97c0-4.237-3.434-7.672-7.672-7.672h-10.96v-39.423v-64.443V304.31h10.96 c4.238,0,7.672-3.435,7.672-7.672v-28.641c0-4.237-3.434-7.672-7.672-7.672h-67.152v-33.212 c50.813-11.934,88.758-57.635,88.758-112.037C371.442,51.623,319.819,0,256.366,0S141.289,51.623,141.289,115.077 c0,54.401,37.946,100.102,88.758,112.037v33.213h-67.152c-4.237,0-7.672,3.435-7.672,7.672v28.641c0,4.237,3.435,7.672,7.672,7.672 h10.229v31.199v64.443v39.423h-10.229c-4.237,0-7.672,3.435-7.672,7.672v20.97h-16.366c-4.237,0-7.672,3.435-7.672,7.672v28.641 c0,4.237,3.435,7.672,7.672,7.672h234.286c4.238,0,7.672-3.435,7.672-7.672v-28.641C380.814,471.45,377.38,468.015,373.142,468.015z M188.467,343.18h135.064v49.099H188.467V343.18z M156.632,115.077c0-54.993,44.74-99.733,99.733-99.733 c54.992,0,99.733,44.74,99.733,99.733s-44.74,99.733-99.733,99.733C201.372,214.81,156.632,170.07,156.632,115.077z M245.39,229.626 c3.614,0.344,7.273,0.527,10.975,0.527c3.702,0,7.362-0.183,10.975-0.526v30.697H245.39V229.626z M170.567,275.668h171.597v13.298 h-10.96H180.796h-10.229V275.668z M323.532,304.31v23.527H188.467V304.31H323.532z M188.467,407.623h135.064v31.751H188.467V407.623 z M170.567,454.717h10.229h150.408h10.96v13.298H170.567V454.717z M365.471,496.656H146.528v-13.298h16.366h186.941h15.635V496.656z "></path> </g></svg>